<mxfile host="www.draw.io" modified="2020-02-18T13:55:37.104Z" agent="Mozilla/5.0 (Macintosh; Intel Mac OS X 10_15_3) AppleWebKit/537.36 (KHTML, like Gecko) Chrome/79.0.3945.130 Safari/537.36" etag="08uXC2IQfstQBYCQXLBR" version="12.7.1" type="github">
  <diagram name="Page-1" id="82e54ff1-d628-8f03-85c4-9753963a91cd">
    <mxGraphModel dx="1774" dy="1056" grid="1" gridSize="10" guides="1" tooltips="1" connect="1" arrows="1" fold="1" page="1" pageScale="1" pageWidth="1654" pageHeight="1169" background="#ffffff" math="0" shadow="0">
      <root>
        <mxCell id="0" />
        <mxCell id="1" parent="0" />
        <mxCell id="4ec97bd9e5d20128-1" value="" style="line;strokeWidth=2;html=1;fillColor=none;fontSize=28;fontColor=#004D99;strokeColor=#004D99;" parent="1" vertex="1">
          <mxGeometry x="190" y="342.62" width="1447.77" height="10" as="geometry" />
        </mxCell>
        <mxCell id="4ec97bd9e5d20128-5" value="&lt;font style=&quot;font-size: 15px&quot;&gt;&lt;b&gt;Opposition to Rakosi&lt;/b&gt;&lt;/font&gt;" style="shape=offPageConnector;whiteSpace=wrap;html=1;fillColor=#0075E8;fontSize=15;fontColor=#FFFFFF;size=0.5093750000000015;verticalAlign=top;strokeColor=none;" parent="1" vertex="1">
          <mxGeometry x="107.77" y="242.62" width="160" height="80" as="geometry" />
        </mxCell>
        <mxCell id="4ec97bd9e5d20128-7" value="&lt;b&gt;Rakosi not supported by Moscow&lt;/b&gt;" style="shape=offPageConnector;whiteSpace=wrap;html=1;fillColor=#0075E8;fontSize=15;fontColor=#FFFFFF;size=0.4178571428571445;flipV=1;verticalAlign=bottom;strokeColor=none;spacingBottom=4;" parent="1" vertex="1">
          <mxGeometry x="334.77" y="367.62" width="160" height="75" as="geometry" />
        </mxCell>
        <mxCell id="4ec97bd9e5d20128-9" value="" style="ellipse;whiteSpace=wrap;html=1;fillColor=#61BAFF;fontSize=28;fontColor=#004D99;strokeWidth=3;strokeColor=#004D99;" parent="1" vertex="1">
          <mxGeometry x="177.77" y="337.62" width="20" height="20" as="geometry" />
        </mxCell>
        <mxCell id="4ec97bd9e5d20128-10" value="" style="ellipse;whiteSpace=wrap;html=1;fillColor=#61BAFF;fontSize=28;fontColor=#004D99;strokeWidth=3;strokeColor=#004D99;" parent="1" vertex="1">
          <mxGeometry x="404.77" y="337.62" width="20" height="20" as="geometry" />
        </mxCell>
        <mxCell id="4ec97bd9e5d20128-11" value="" style="ellipse;whiteSpace=wrap;html=1;fillColor=#61BAFF;fontSize=28;fontColor=#004D99;strokeWidth=3;strokeColor=#004D99;" parent="1" vertex="1">
          <mxGeometry x="630.77" y="337.62" width="20" height="20" as="geometry" />
        </mxCell>
        <mxCell id="4ec97bd9e5d20128-13" value="" style="ellipse;whiteSpace=wrap;html=1;fillColor=#61BAFF;fontSize=28;fontColor=#004D99;strokeWidth=3;strokeColor=#004D99;" parent="1" vertex="1">
          <mxGeometry x="857.77" y="337.62" width="20" height="20" as="geometry" />
        </mxCell>
        <mxCell id="4ec97bd9e5d20128-14" value="&lt;h1 style=&quot;font-size: 10px&quot;&gt;&lt;span style=&quot;font-weight: normal&quot;&gt;&lt;br&gt;&lt;br&gt;&lt;/span&gt;&lt;/h1&gt;&lt;div&gt;Showing USSR&#39;s control was not secure - always having some opposition&lt;/div&gt;" style="text;html=1;spacing=5;spacingTop=-20;whiteSpace=wrap;overflow=hidden;strokeColor=none;strokeWidth=3;fillColor=#E6E6E6;fontSize=10;fontColor=#000000;align=center;rounded=1;" parent="1" vertex="1">
          <mxGeometry x="80.77" y="372.62" width="215" height="120" as="geometry" />
        </mxCell>
        <mxCell id="4ec97bd9e5d20128-16" value="&lt;h1 style=&quot;font-size: 10px&quot;&gt;&lt;br&gt;&lt;/h1&gt;&lt;div&gt;Showing USSR&#39;s control was secure, it was capable of deciding key things for the leaders in Hungary&lt;/div&gt;" style="text;html=1;spacing=5;spacingTop=-20;whiteSpace=wrap;overflow=hidden;strokeColor=none;strokeWidth=3;fillColor=#E6E6E6;fontSize=10;fontColor=#000000;align=center;rounded=1;" parent="1" vertex="1">
          <mxGeometry x="306.77" y="192.62" width="215" height="120" as="geometry" />
        </mxCell>
        <mxCell id="4ec97bd9e5d20128-17" value="&lt;h1 style=&quot;font-size: 12px&quot;&gt;&lt;span style=&quot;font-weight: 400 ; font-size: 12px&quot;&gt;&lt;br style=&quot;font-size: 12px&quot;&gt;&lt;/span&gt;&lt;/h1&gt;&lt;h1 style=&quot;font-size: 12px&quot;&gt;&lt;span style=&quot;font-weight: 400 ; font-size: 12px&quot;&gt;Showing USSR&#39;s control was to some extent secure, as Moscow is capable of changing leader and making decisions using few words&lt;/span&gt;&lt;br style=&quot;font-size: 12px&quot;&gt;&lt;/h1&gt;" style="text;html=1;spacing=5;spacingTop=-20;whiteSpace=wrap;overflow=hidden;strokeColor=none;strokeWidth=3;fillColor=#E6E6E6;fontSize=12;fontColor=#000000;align=center;rounded=1;" parent="1" vertex="1">
          <mxGeometry x="532.77" y="372.62" width="215" height="120" as="geometry" />
        </mxCell>
        <mxCell id="4ec97bd9e5d20128-18" value="&lt;h1 style=&quot;font-size: 12px&quot;&gt;&lt;br style=&quot;font-size: 12px&quot;&gt;&lt;/h1&gt;&lt;div style=&quot;font-size: 12px&quot;&gt;Showing USSR&#39;s control was not secure, many protests.&lt;/div&gt;&lt;div style=&quot;font-size: 12px&quot;&gt;On the other hand, USSR&#39;s control was secure because it was capable of settling a demonstration&lt;/div&gt;" style="text;html=1;spacing=5;spacingTop=-20;whiteSpace=wrap;overflow=hidden;strokeColor=none;strokeWidth=3;fillColor=#E6E6E6;fontSize=12;fontColor=#000000;align=center;rounded=1;" parent="1" vertex="1">
          <mxGeometry x="760.77" y="192.62" width="215" height="120" as="geometry" />
        </mxCell>
        <mxCell id="olR5RwuTCDaTEog6YX5e-5" value="Hungarian Uprising Timeline" style="text;html=1;strokeColor=none;fillColor=none;align=center;verticalAlign=middle;whiteSpace=wrap;rounded=0;fontSize=60;fontFamily=Georgia;" vertex="1" parent="1">
          <mxGeometry x="7.77" y="752.62" width="460" height="20" as="geometry" />
        </mxCell>
        <mxCell id="olR5RwuTCDaTEog6YX5e-7" value="&lt;font style=&quot;font-size: 20px&quot;&gt;By： Steven Zhou&lt;/font&gt;" style="text;html=1;strokeColor=none;fillColor=none;align=center;verticalAlign=middle;whiteSpace=wrap;rounded=0;fontFamily=Georgia;fontSize=60;" vertex="1" parent="1">
          <mxGeometry x="137.77" y="882.62" width="187" height="20" as="geometry" />
        </mxCell>
        <mxCell id="olR5RwuTCDaTEog6YX5e-14" value="&lt;font style=&quot;font-size: 12px&quot;&gt;June 1956, group of people oppose Rakosi’s rule in communist party&lt;/font&gt;" style="shape=offPageConnector;whiteSpace=wrap;html=1;fillColor=#0075E8;fontSize=12;fontColor=#FFFFFF;size=0;verticalAlign=top;strokeColor=none;" vertex="1" parent="1">
          <mxGeometry x="107.77" y="172.62" width="160" height="60" as="geometry" />
        </mxCell>
        <mxCell id="olR5RwuTCDaTEog6YX5e-16" value="&lt;font style=&quot;font-size: 12px&quot;&gt;Rakosi wanted to arrest 400 opponents but Moscow refused&lt;/font&gt;" style="shape=offPageConnector;whiteSpace=wrap;html=1;fillColor=#0075E8;fontSize=12;fontColor=#FFFFFF;size=0;verticalAlign=top;strokeColor=none;" vertex="1" parent="1">
          <mxGeometry x="334.27" y="452.62" width="163.5" height="60" as="geometry" />
        </mxCell>
        <mxCell id="olR5RwuTCDaTEog6YX5e-20" value="&lt;font style=&quot;font-size: 16px&quot;&gt;&lt;b&gt;Rakosi removed&lt;/b&gt;&lt;/font&gt;" style="shape=offPageConnector;whiteSpace=wrap;html=1;fillColor=#0075E8;fontSize=15;fontColor=#FFFFFF;size=0.5093750000000015;verticalAlign=top;strokeColor=none;" vertex="1" parent="1">
          <mxGeometry x="560.77" y="242.62" width="160" height="80" as="geometry" />
        </mxCell>
        <mxCell id="olR5RwuTCDaTEog6YX5e-21" value="&lt;font style=&quot;font-size: 12px&quot;&gt;Moscow ordered Rakosi to be “retired for health reasons”, New leader Erno Gero come up - but was also not acceptable by the Hungarians&lt;/font&gt;" style="shape=offPageConnector;whiteSpace=wrap;html=1;fillColor=#0075E8;fontSize=12;fontColor=#FFFFFF;size=0;verticalAlign=top;strokeColor=none;fontFamily=Garamond;" vertex="1" parent="1">
          <mxGeometry x="560.77" y="132.62" width="160" height="100" as="geometry" />
        </mxCell>
        <mxCell id="olR5RwuTCDaTEog6YX5e-22" value="&lt;font style=&quot;font-size: 16px&quot;&gt;&lt;b&gt;Rebellion&lt;/b&gt;&lt;/font&gt;" style="shape=offPageConnector;whiteSpace=wrap;html=1;fillColor=#0075E8;fontSize=15;fontColor=#FFFFFF;size=0.4178571428571445;flipV=1;verticalAlign=bottom;strokeColor=none;spacingBottom=4;" vertex="1" parent="1">
          <mxGeometry x="786.8399999999999" y="372.62" width="160" height="75" as="geometry" />
        </mxCell>
        <mxCell id="olR5RwuTCDaTEog6YX5e-23" value="&lt;span style=&quot;font-size: 10px;&quot;&gt;23 October, student protests. Students Demanded an end to Soviet control &amp;amp; the implementation of “true socialism”. When students attempted to aid those who had been arrested, the police opened fire on the crowd. A 30-foot statue of Stalin was toppled by protestors.&amp;nbsp;&lt;/span&gt;" style="shape=offPageConnector;whiteSpace=wrap;html=1;fillColor=#0075E8;fontSize=10;fontColor=#FFFFFF;size=0;verticalAlign=top;strokeColor=none;fontFamily=Helvetica;" vertex="1" parent="1">
          <mxGeometry x="786.34" y="457.62" width="161.43" height="155" as="geometry" />
        </mxCell>
        <mxCell id="olR5RwuTCDaTEog6YX5e-24" value="" style="ellipse;whiteSpace=wrap;html=1;fillColor=#61BAFF;fontSize=28;fontColor=#004D99;strokeWidth=3;strokeColor=#004D99;" vertex="1" parent="1">
          <mxGeometry x="1095.77" y="337.62" width="20" height="20" as="geometry" />
        </mxCell>
        <mxCell id="olR5RwuTCDaTEog6YX5e-25" value="&lt;h1 style=&quot;font-size: 12px&quot;&gt;&lt;span style=&quot;font-weight: normal&quot;&gt;&lt;br&gt;&lt;/span&gt;&lt;/h1&gt;&lt;h1 style=&quot;font-size: 12px&quot;&gt;&lt;span style=&quot;font-weight: normal&quot;&gt;Showing the control was not secure, the party is able to function without a leader loyal to USSR&lt;/span&gt;&lt;/h1&gt;" style="text;html=1;spacing=5;spacingTop=-20;whiteSpace=wrap;overflow=hidden;strokeColor=none;strokeWidth=3;fillColor=#E6E6E6;fontSize=12;fontColor=#000000;align=center;rounded=1;" vertex="1" parent="1">
          <mxGeometry x="997.77" y="372.62" width="215" height="120" as="geometry" />
        </mxCell>
        <mxCell id="olR5RwuTCDaTEog6YX5e-26" value="&lt;span style=&quot;font-size: 16px&quot;&gt;&lt;b&gt;Imre Nagy forms new government&lt;/b&gt;&lt;/span&gt;" style="shape=offPageConnector;whiteSpace=wrap;html=1;fillColor=#0075E8;fontSize=15;fontColor=#FFFFFF;size=0.5093750000000015;verticalAlign=top;strokeColor=none;" vertex="1" parent="1">
          <mxGeometry x="1025.77" y="242.62" width="160" height="80" as="geometry" />
        </mxCell>
        <mxCell id="olR5RwuTCDaTEog6YX5e-27" value="&lt;font style=&quot;font-size: 12px&quot;&gt;The Hungarian Communist Party forced to appointed a new Prime Minister, Imre Nagy.&amp;nbsp;&lt;/font&gt;" style="shape=offPageConnector;whiteSpace=wrap;html=1;fillColor=#0075E8;fontSize=12;fontColor=#FFFFFF;size=0;verticalAlign=top;strokeColor=none;fontFamily=Garamond;" vertex="1" parent="1">
          <mxGeometry x="1025.77" y="160" width="160" height="72.62" as="geometry" />
        </mxCell>
        <mxCell id="olR5RwuTCDaTEog6YX5e-32" value="" style="ellipse;whiteSpace=wrap;html=1;fillColor=#61BAFF;fontSize=28;fontColor=#004D99;strokeWidth=3;strokeColor=#004D99;" vertex="1" parent="1">
          <mxGeometry x="1324.77" y="337.62" width="20" height="20" as="geometry" />
        </mxCell>
        <mxCell id="olR5RwuTCDaTEog6YX5e-33" value="&lt;h1 style=&quot;font-size: 12px&quot;&gt;&lt;br style=&quot;font-size: 12px&quot;&gt;&lt;/h1&gt;&lt;div style=&quot;font-size: 12px&quot;&gt;Showing USSR&#39;s control was not secure,&amp;nbsp;&lt;/div&gt;&lt;span style=&quot;font-size: 10px&quot;&gt;it needed to use troops to gain control and have to negotiate&lt;/span&gt;" style="text;html=1;spacing=5;spacingTop=-20;whiteSpace=wrap;overflow=hidden;strokeColor=none;strokeWidth=3;fillColor=#E6E6E6;fontSize=12;fontColor=#000000;align=center;rounded=1;" vertex="1" parent="1">
          <mxGeometry x="1227.77" y="192.62" width="215" height="120" as="geometry" />
        </mxCell>
        <mxCell id="olR5RwuTCDaTEog6YX5e-34" value="&lt;b&gt;&lt;font style=&quot;font-size: 15px&quot;&gt;Soviet tanks move in and then withdraw&lt;/font&gt;&lt;/b&gt;" style="shape=offPageConnector;whiteSpace=wrap;html=1;fillColor=#0075E8;fontSize=15;fontColor=#FFFFFF;size=0.4178571428571445;flipV=1;verticalAlign=bottom;strokeColor=none;spacingBottom=4;" vertex="1" parent="1">
          <mxGeometry x="1253.84" y="372.62" width="160" height="75" as="geometry" />
        </mxCell>
        <mxCell id="olR5RwuTCDaTEog6YX5e-35" value="&lt;div&gt;&lt;span style=&quot;font-size: 11px&quot;&gt;24 October 1956, Soviet tanks stationed outside the Parliament + Soviet soldiers guarded key roads.&amp;nbsp;&lt;/span&gt;&lt;/div&gt;&lt;div&gt;&lt;span style=&quot;font-size: 11px&quot;&gt;Nagy asked Khrushchev to remove Russian troops from Hungary. Khrushchev agree to avoid bloody fighting, and pulled out his army.&lt;/span&gt;&lt;/div&gt;&lt;div&gt;&lt;br&gt;&lt;/div&gt;" style="shape=offPageConnector;whiteSpace=wrap;html=1;fillColor=#0075E8;fontSize=11;fontColor=#FFFFFF;size=0;verticalAlign=top;strokeColor=none;fontFamily=Helvetica;" vertex="1" parent="1">
          <mxGeometry x="1253.34" y="457.62" width="164.43" height="145" as="geometry" />
        </mxCell>
        <mxCell id="olR5RwuTCDaTEog6YX5e-40" value="" style="ellipse;whiteSpace=wrap;html=1;fillColor=#61BAFF;fontSize=28;fontColor=#004D99;strokeWidth=3;strokeColor=#004D99;" vertex="1" parent="1">
          <mxGeometry x="637.77" y="797.62" width="20" height="20" as="geometry" />
        </mxCell>
        <mxCell id="olR5RwuTCDaTEog6YX5e-41" value="&lt;h1 style=&quot;font-size: 10px&quot;&gt;&lt;br&gt;&lt;/h1&gt;&lt;p style=&quot;font-size: 10px&quot;&gt;Showing USSR&#39;s Control was not secure. Political leaders were making plans to distant from USSR and trying to establish policy differ to USSR&lt;/p&gt;" style="text;html=1;spacing=5;spacingTop=-20;whiteSpace=wrap;overflow=hidden;strokeColor=none;strokeWidth=3;fillColor=#E6E6E6;fontSize=10;fontColor=#000000;align=center;rounded=1;" vertex="1" parent="1">
          <mxGeometry x="539.77" y="832.62" width="215" height="120" as="geometry" />
        </mxCell>
        <mxCell id="olR5RwuTCDaTEog6YX5e-42" value="&lt;span style=&quot;font-size: 16px&quot;&gt;&lt;b&gt;Nagy’s plans&lt;/b&gt;&lt;/span&gt;" style="shape=offPageConnector;whiteSpace=wrap;html=1;fillColor=#0075E8;fontSize=15;fontColor=#FFFFFF;size=0.5093750000000015;verticalAlign=top;strokeColor=none;" vertex="1" parent="1">
          <mxGeometry x="567.77" y="702.62" width="160" height="80" as="geometry" />
        </mxCell>
        <mxCell id="olR5RwuTCDaTEog6YX5e-43" value="&lt;div&gt;29 October–3 November: Nagy introduced democracy, freedom of speech &amp;amp; religion. Cardinal Joseph Mindszenty and other political prisoners were released from prison. Leaving from Warsaw Pact was announced.&amp;nbsp;&lt;/div&gt;" style="shape=offPageConnector;whiteSpace=wrap;html=1;fillColor=#0075E8;fontSize=12;fontColor=#FFFFFF;size=0;verticalAlign=top;strokeColor=none;fontFamily=Garamond;" vertex="1" parent="1">
          <mxGeometry x="567.77" y="552.62" width="160" height="140" as="geometry" />
        </mxCell>
        <mxCell id="olR5RwuTCDaTEog6YX5e-44" value="" style="line;strokeWidth=2;html=1;fillColor=none;fontSize=28;fontColor=#004D99;strokeColor=#004D99;" vertex="1" parent="1">
          <mxGeometry x="447.77" y="802.62" width="892.23" height="10" as="geometry" />
        </mxCell>
        <mxCell id="olR5RwuTCDaTEog6YX5e-45" value="&lt;b&gt;Khrushchev sends in troops&lt;/b&gt;" style="shape=offPageConnector;whiteSpace=wrap;html=1;fillColor=#0075E8;fontSize=15;fontColor=#FFFFFF;size=0.4178571428571445;flipV=1;verticalAlign=bottom;strokeColor=none;spacingBottom=4;" vertex="1" parent="1">
          <mxGeometry x="791.27" y="827.62" width="160" height="75" as="geometry" />
        </mxCell>
        <mxCell id="olR5RwuTCDaTEog6YX5e-46" value="" style="ellipse;whiteSpace=wrap;html=1;fillColor=#61BAFF;fontSize=28;fontColor=#004D99;strokeWidth=3;strokeColor=#004D99;" vertex="1" parent="1">
          <mxGeometry x="861.27" y="797.62" width="20" height="20" as="geometry" />
        </mxCell>
        <mxCell id="olR5RwuTCDaTEog6YX5e-47" value="&lt;h1 style=&quot;font-size: 10px&quot;&gt;&lt;span style=&quot;font-weight: normal&quot;&gt;&lt;br&gt;&lt;/span&gt;&lt;/h1&gt;&lt;h1 style=&quot;font-size: 10px&quot;&gt;&lt;span style=&quot;font-weight: normal&quot;&gt;Showing the control was secure, USSR was capable of capturing key positions&lt;/span&gt;&lt;br&gt;&lt;/h1&gt;&lt;p style=&quot;font-size: 10px&quot;&gt;However, it also shows it was not secure because it needed to use troops to gain control&lt;/p&gt;" style="text;html=1;spacing=5;spacingTop=-20;whiteSpace=wrap;overflow=hidden;strokeColor=none;strokeWidth=3;fillColor=#E6E6E6;fontSize=10;fontColor=#000000;align=center;rounded=1;" vertex="1" parent="1">
          <mxGeometry x="763.27" y="652.62" width="215" height="120" as="geometry" />
        </mxCell>
        <mxCell id="olR5RwuTCDaTEog6YX5e-48" value="&lt;font style=&quot;font-size: 12px&quot;&gt;4 November: One thousand Russian tanks moved into Budapest. They almost immediately captured Hungary’s airfields, highway junctions, and bridges.&lt;/font&gt;" style="shape=offPageConnector;whiteSpace=wrap;html=1;fillColor=#0075E8;fontSize=12;fontColor=#FFFFFF;size=0;verticalAlign=top;strokeColor=none;" vertex="1" parent="1">
          <mxGeometry x="792.77" y="912.62" width="157" height="100" as="geometry" />
        </mxCell>
        <mxCell id="olR5RwuTCDaTEog6YX5e-49" value="" style="ellipse;whiteSpace=wrap;html=1;fillColor=#61BAFF;fontSize=28;fontColor=#004D99;strokeWidth=3;strokeColor=#004D99;" vertex="1" parent="1">
          <mxGeometry x="1096.27" y="797.62" width="20" height="20" as="geometry" />
        </mxCell>
        <mxCell id="olR5RwuTCDaTEog6YX5e-50" value="&lt;h1 style=&quot;font-size: 10px&quot;&gt;&lt;br&gt;&lt;/h1&gt;&lt;p style=&quot;font-size: 10px&quot;&gt;Showing the control was not secure, the citizens were outraged and fight for 2 weeks, it shows the public opinion for opposing the USSR control is high.&amp;nbsp;&lt;span&gt;It can also be argued that USSR is able to stop the protests&lt;/span&gt;&lt;/p&gt;" style="text;html=1;spacing=5;spacingTop=-20;whiteSpace=wrap;overflow=hidden;strokeColor=none;strokeWidth=3;fillColor=#E6E6E6;fontSize=10;fontColor=#000000;align=center;rounded=1;" vertex="1" parent="1">
          <mxGeometry x="998.27" y="832.62" width="215" height="120" as="geometry" />
        </mxCell>
        <mxCell id="olR5RwuTCDaTEog6YX5e-51" value="&lt;span style=&quot;font-size: 16px&quot;&gt;&lt;b&gt;Two weeks of fierce street fighting&lt;/b&gt;&lt;/span&gt;" style="shape=offPageConnector;whiteSpace=wrap;html=1;fillColor=#0075E8;fontSize=15;fontColor=#FFFFFF;size=0.5093750000000015;verticalAlign=top;strokeColor=none;" vertex="1" parent="1">
          <mxGeometry x="1026.27" y="702.62" width="160" height="80" as="geometry" />
        </mxCell>
        <mxCell id="olR5RwuTCDaTEog6YX5e-52" value="&lt;div&gt;Fierce fighting took place - Russian force was too strong for the Hungarian army and protestors.&amp;nbsp;&lt;/div&gt;" style="shape=offPageConnector;whiteSpace=wrap;html=1;fillColor=#0075E8;fontSize=12;fontColor=#FFFFFF;size=0;verticalAlign=top;strokeColor=none;fontFamily=Garamond;" vertex="1" parent="1">
          <mxGeometry x="1026.27" y="622.62" width="160" height="70" as="geometry" />
        </mxCell>
        <mxCell id="olR5RwuTCDaTEog6YX5e-53" value="&lt;b&gt;Nagy imprisoned and executed&lt;/b&gt;" style="shape=offPageConnector;whiteSpace=wrap;html=1;fillColor=#0075E8;fontSize=15;fontColor=#FFFFFF;size=0.4178571428571445;flipV=1;verticalAlign=bottom;strokeColor=none;spacingBottom=4;" vertex="1" parent="1">
          <mxGeometry x="1256.05" y="827.62" width="160" height="75" as="geometry" />
        </mxCell>
        <mxCell id="olR5RwuTCDaTEog6YX5e-54" value="" style="ellipse;whiteSpace=wrap;html=1;fillColor=#61BAFF;fontSize=28;fontColor=#004D99;strokeWidth=3;strokeColor=#004D99;" vertex="1" parent="1">
          <mxGeometry x="1326.05" y="797.62" width="20" height="20" as="geometry" />
        </mxCell>
        <mxCell id="olR5RwuTCDaTEog6YX5e-55" value="&lt;h1 style=&quot;font-size: 10px&quot;&gt;&lt;br&gt;&lt;/h1&gt;&lt;p style=&quot;font-size: 10px&quot;&gt;Showing USSR&#39;s control was secure. the opposition leader can e executed at any time.&lt;/p&gt;&lt;p style=&quot;font-size: 10px&quot;&gt;On the other side, USSR have to execute a leader in order to gain control.&lt;/p&gt;" style="text;html=1;spacing=5;spacingTop=-20;whiteSpace=wrap;overflow=hidden;strokeColor=none;strokeWidth=3;fillColor=#E6E6E6;fontSize=10;fontColor=#000000;align=center;rounded=1;" vertex="1" parent="1">
          <mxGeometry x="1228.05" y="652.62" width="215" height="120" as="geometry" />
        </mxCell>
        <mxCell id="olR5RwuTCDaTEog6YX5e-56" value="&lt;font style=&quot;font-size: 12px&quot;&gt;The new leader of Hungary, Janos Kadar promised Nagy and his followers that they would be allowed to leave the country safely. Three weeks later they were kidnapped, tried, and eventually executed for treason.&amp;nbsp;&lt;/font&gt;" style="shape=offPageConnector;whiteSpace=wrap;html=1;fillColor=#0075E8;fontSize=12;fontColor=#FFFFFF;size=0;verticalAlign=top;strokeColor=none;" vertex="1" parent="1">
          <mxGeometry x="1257.55" y="912.62" width="160.22" height="130" as="geometry" />
        </mxCell>
      </root>
    </mxGraphModel>
  </diagram>
</mxfile>
